# xmcd
#
# Track frame offsets:
#	150
#	15915
#	35011
#	49473
#	70128
#	88456
#	107049
#	128512
#	149452
#	169522
#	187362
#	204081
#	225960
#	242324
#	265131
#	287959
#	309108
#
# Disc length: 4429 seconds
#
# Revision: 0
# Processed by: cddbd v1.4PL0 Copyright (c) Steve Scherf et al.
# Submitted via: audiograbber 1.81.03
#
DISCID=e7114b11
DTITLE=Aerosmith - The Aerosmith Anthology Vol2
DYEAR=2001
DGENRE=Rock
TTITLE0=Let The Music Do The Talking
TTITLE1=My Fist Your Face
TTITLE2=Shame On You
TTITLE3=Heart's Done Time
TTITLE4=Rag Doll
TTITLE5=Dude (Look Like A Lady)
TTITLE6=Angel
TTITLE7=Hangman Jury
TTITLE8=Permanent Vacation
TTITLE9=Young Lust
TTITLE10=The Other Side
TTITLE11=What It Takes
TTITLE12=Monkey On My Back
TTITLE13=Love In An Elevator
TTITLE14=Janie's Got A Gun
TTITLE15=Ain't Enough
TTITLE16=Walk This Way
EXTD=
EXTT0=
EXTT1=
EXTT2=
EXTT3=
EXTT4=
EXTT5=
EXTT6=
EXTT7=
EXTT8=
EXTT9=
EXTT10=
EXTT11=
EXTT12=
EXTT13=
EXTT14=
EXTT15=
EXTT16=
PLAYORDER=
